<mxfile host="app.diagrams.net" modified="2020-09-20T15:48:46.317Z" agent="5.0 (Windows)" etag="kGMiwqnnhanvt7HCz-Zp" version="13.7.3" type="github" pages="2">
  <diagram id="C5RBs43oDa-KdzZeNtuy" name="Page-1">
    <mxGraphModel dx="1718" dy="936" grid="1" gridSize="10" guides="1" tooltips="1" connect="1" arrows="1" fold="1" page="1" pageScale="1" pageWidth="1169" pageHeight="827" math="0" shadow="0">
      <root>
        <mxCell id="WIyWlLk6GJQsqaUBKTNV-0" />
        <mxCell id="WIyWlLk6GJQsqaUBKTNV-1" parent="WIyWlLk6GJQsqaUBKTNV-0" />
        <mxCell id="3lYdnJpDR3UN_ndo2m7_-62" value="" style="rounded=0;whiteSpace=wrap;html=1;fillColor=none;" vertex="1" parent="WIyWlLk6GJQsqaUBKTNV-1">
          <mxGeometry x="220" y="70" width="120" height="180" as="geometry" />
        </mxCell>
        <mxCell id="3lYdnJpDR3UN_ndo2m7_-72" value="" style="rounded=0;whiteSpace=wrap;html=1;fillColor=none;" vertex="1" parent="WIyWlLk6GJQsqaUBKTNV-1">
          <mxGeometry x="620" y="70" width="220" height="270" as="geometry" />
        </mxCell>
        <mxCell id="3lYdnJpDR3UN_ndo2m7_-9" value="&lt;div&gt;PTT&lt;/div&gt;" style="rounded=0;whiteSpace=wrap;html=1;" vertex="1" parent="WIyWlLk6GJQsqaUBKTNV-1">
          <mxGeometry x="40" y="120" width="80" height="80" as="geometry" />
        </mxCell>
        <mxCell id="3lYdnJpDR3UN_ndo2m7_-10" value="&lt;div&gt;slug&lt;/div&gt;" style="rounded=0;whiteSpace=wrap;html=1;" vertex="1" parent="WIyWlLk6GJQsqaUBKTNV-1">
          <mxGeometry x="240" y="90" width="40" height="20" as="geometry" />
        </mxCell>
        <mxCell id="3lYdnJpDR3UN_ndo2m7_-11" value="&lt;div&gt;slug&lt;/div&gt;" style="rounded=0;whiteSpace=wrap;html=1;" vertex="1" parent="WIyWlLk6GJQsqaUBKTNV-1">
          <mxGeometry x="240" y="90" width="80" height="20" as="geometry" />
        </mxCell>
        <mxCell id="3lYdnJpDR3UN_ndo2m7_-12" value="&lt;div&gt;slug&lt;/div&gt;" style="rounded=0;whiteSpace=wrap;html=1;" vertex="1" parent="WIyWlLk6GJQsqaUBKTNV-1">
          <mxGeometry x="240" y="90" width="80" height="20" as="geometry" />
        </mxCell>
        <mxCell id="3lYdnJpDR3UN_ndo2m7_-13" value="push" style="rounded=0;whiteSpace=wrap;html=1;" vertex="1" parent="WIyWlLk6GJQsqaUBKTNV-1">
          <mxGeometry x="240" y="120" width="80" height="20" as="geometry" />
        </mxCell>
        <mxCell id="3lYdnJpDR3UN_ndo2m7_-58" style="edgeStyle=orthogonalEdgeStyle;rounded=0;orthogonalLoop=1;jettySize=auto;html=1;" edge="1" parent="WIyWlLk6GJQsqaUBKTNV-1" source="3lYdnJpDR3UN_ndo2m7_-14" target="3lYdnJpDR3UN_ndo2m7_-28">
          <mxGeometry relative="1" as="geometry" />
        </mxCell>
        <mxCell id="3lYdnJpDR3UN_ndo2m7_-14" value="comment" style="rounded=0;whiteSpace=wrap;html=1;" vertex="1" parent="WIyWlLk6GJQsqaUBKTNV-1">
          <mxGeometry x="240" y="150" width="80" height="20" as="geometry" />
        </mxCell>
        <mxCell id="3lYdnJpDR3UN_ndo2m7_-15" value="url" style="rounded=0;whiteSpace=wrap;html=1;" vertex="1" parent="WIyWlLk6GJQsqaUBKTNV-1">
          <mxGeometry x="240" y="180" width="80" height="20" as="geometry" />
        </mxCell>
        <mxCell id="3lYdnJpDR3UN_ndo2m7_-84" style="edgeStyle=orthogonalEdgeStyle;rounded=0;orthogonalLoop=1;jettySize=auto;html=1;entryX=0.5;entryY=0;entryDx=0;entryDy=0;" edge="1" parent="WIyWlLk6GJQsqaUBKTNV-1" source="3lYdnJpDR3UN_ndo2m7_-16" target="3lYdnJpDR3UN_ndo2m7_-17">
          <mxGeometry relative="1" as="geometry" />
        </mxCell>
        <mxCell id="3lYdnJpDR3UN_ndo2m7_-16" value="&lt;div&gt;img_url&lt;/div&gt;" style="rounded=0;whiteSpace=wrap;html=1;" vertex="1" parent="WIyWlLk6GJQsqaUBKTNV-1">
          <mxGeometry x="240" y="210" width="80" height="20" as="geometry" />
        </mxCell>
        <mxCell id="NAhFsv_ZAzQZ003jYEAS-1" value="" style="edgeStyle=none;rounded=0;orthogonalLoop=1;jettySize=auto;html=1;endArrow=classic;endFill=1;" edge="1" parent="WIyWlLk6GJQsqaUBKTNV-1" source="3lYdnJpDR3UN_ndo2m7_-17" target="3lYdnJpDR3UN_ndo2m7_-33">
          <mxGeometry relative="1" as="geometry" />
        </mxCell>
        <mxCell id="3lYdnJpDR3UN_ndo2m7_-17" value="image" style="rounded=0;whiteSpace=wrap;html=1;" vertex="1" parent="WIyWlLk6GJQsqaUBKTNV-1">
          <mxGeometry x="240" y="270" width="80" height="80" as="geometry" />
        </mxCell>
        <mxCell id="3lYdnJpDR3UN_ndo2m7_-59" style="edgeStyle=orthogonalEdgeStyle;rounded=0;orthogonalLoop=1;jettySize=auto;html=1;entryX=0;entryY=0.5;entryDx=0;entryDy=0;" edge="1" parent="WIyWlLk6GJQsqaUBKTNV-1" source="3lYdnJpDR3UN_ndo2m7_-28" target="3lYdnJpDR3UN_ndo2m7_-31">
          <mxGeometry relative="1" as="geometry" />
        </mxCell>
        <mxCell id="3lYdnJpDR3UN_ndo2m7_-28" value="BERT" style="rounded=1;whiteSpace=wrap;html=1;" vertex="1" parent="WIyWlLk6GJQsqaUBKTNV-1">
          <mxGeometry x="360" y="140" width="60" height="40" as="geometry" />
        </mxCell>
        <mxCell id="3lYdnJpDR3UN_ndo2m7_-31" value="tag" style="rounded=0;whiteSpace=wrap;html=1;" vertex="1" parent="WIyWlLk6GJQsqaUBKTNV-1">
          <mxGeometry x="520" y="150" width="80" height="20" as="geometry" />
        </mxCell>
        <mxCell id="3lYdnJpDR3UN_ndo2m7_-82" style="edgeStyle=orthogonalEdgeStyle;rounded=0;orthogonalLoop=1;jettySize=auto;html=1;entryX=0;entryY=0.5;entryDx=0;entryDy=0;" edge="1" parent="WIyWlLk6GJQsqaUBKTNV-1" source="3lYdnJpDR3UN_ndo2m7_-33" target="3lYdnJpDR3UN_ndo2m7_-81">
          <mxGeometry relative="1" as="geometry" />
        </mxCell>
        <mxCell id="3lYdnJpDR3UN_ndo2m7_-33" value="face&lt;br&gt;recognition" style="rounded=1;whiteSpace=wrap;html=1;" vertex="1" parent="WIyWlLk6GJQsqaUBKTNV-1">
          <mxGeometry x="340" y="290" width="80" height="40" as="geometry" />
        </mxCell>
        <mxCell id="3lYdnJpDR3UN_ndo2m7_-77" style="edgeStyle=orthogonalEdgeStyle;rounded=0;orthogonalLoop=1;jettySize=auto;html=1;exitX=0.5;exitY=1;exitDx=0;exitDy=0;entryX=0.5;entryY=0;entryDx=0;entryDy=0;" edge="1" parent="WIyWlLk6GJQsqaUBKTNV-1" source="3lYdnJpDR3UN_ndo2m7_-34" target="3lYdnJpDR3UN_ndo2m7_-75">
          <mxGeometry relative="1" as="geometry" />
        </mxCell>
        <mxCell id="3lYdnJpDR3UN_ndo2m7_-34" value="tag" style="rounded=0;whiteSpace=wrap;html=1;" vertex="1" parent="WIyWlLk6GJQsqaUBKTNV-1">
          <mxGeometry x="740" y="150" width="80" height="20" as="geometry" />
        </mxCell>
        <mxCell id="3lYdnJpDR3UN_ndo2m7_-47" value="" style="endArrow=classic;html=1;entryX=0;entryY=0.5;entryDx=0;entryDy=0;exitX=1;exitY=0.5;exitDx=0;exitDy=0;" edge="1" parent="WIyWlLk6GJQsqaUBKTNV-1" source="3lYdnJpDR3UN_ndo2m7_-9" target="3lYdnJpDR3UN_ndo2m7_-13">
          <mxGeometry width="50" height="50" relative="1" as="geometry">
            <mxPoint x="160" y="170" as="sourcePoint" />
            <mxPoint x="210" y="120" as="targetPoint" />
          </mxGeometry>
        </mxCell>
        <mxCell id="3lYdnJpDR3UN_ndo2m7_-48" value="" style="endArrow=classic;html=1;entryX=0;entryY=0.5;entryDx=0;entryDy=0;" edge="1" parent="WIyWlLk6GJQsqaUBKTNV-1" target="3lYdnJpDR3UN_ndo2m7_-12">
          <mxGeometry width="50" height="50" relative="1" as="geometry">
            <mxPoint x="119" y="160" as="sourcePoint" />
            <mxPoint x="270" y="160" as="targetPoint" />
          </mxGeometry>
        </mxCell>
        <mxCell id="3lYdnJpDR3UN_ndo2m7_-50" value="" style="endArrow=classic;html=1;exitX=1;exitY=0.5;exitDx=0;exitDy=0;entryX=0;entryY=0.5;entryDx=0;entryDy=0;" edge="1" parent="WIyWlLk6GJQsqaUBKTNV-1" source="3lYdnJpDR3UN_ndo2m7_-9" target="3lYdnJpDR3UN_ndo2m7_-15">
          <mxGeometry width="50" height="50" relative="1" as="geometry">
            <mxPoint x="120" y="189.71" as="sourcePoint" />
            <mxPoint x="241" y="190" as="targetPoint" />
          </mxGeometry>
        </mxCell>
        <mxCell id="3lYdnJpDR3UN_ndo2m7_-51" value="" style="endArrow=classic;html=1;exitX=1;exitY=0.5;exitDx=0;exitDy=0;entryX=0;entryY=0.5;entryDx=0;entryDy=0;" edge="1" parent="WIyWlLk6GJQsqaUBKTNV-1" source="3lYdnJpDR3UN_ndo2m7_-9" target="3lYdnJpDR3UN_ndo2m7_-16">
          <mxGeometry width="50" height="50" relative="1" as="geometry">
            <mxPoint x="120" y="219.71000000000004" as="sourcePoint" />
            <mxPoint x="241" y="219.71000000000004" as="targetPoint" />
          </mxGeometry>
        </mxCell>
        <mxCell id="3lYdnJpDR3UN_ndo2m7_-57" value="" style="endArrow=classic;html=1;exitX=1;exitY=0.5;exitDx=0;exitDy=0;entryX=0;entryY=0.5;entryDx=0;entryDy=0;" edge="1" parent="WIyWlLk6GJQsqaUBKTNV-1" source="3lYdnJpDR3UN_ndo2m7_-9" target="3lYdnJpDR3UN_ndo2m7_-14">
          <mxGeometry width="50" height="50" relative="1" as="geometry">
            <mxPoint x="480" y="260" as="sourcePoint" />
            <mxPoint x="530" y="210" as="targetPoint" />
          </mxGeometry>
        </mxCell>
        <mxCell id="3lYdnJpDR3UN_ndo2m7_-29" value="&lt;div&gt;web&lt;/div&gt;&lt;div&gt;crawler&lt;br&gt;&lt;/div&gt;" style="rounded=1;whiteSpace=wrap;html=1;" vertex="1" parent="WIyWlLk6GJQsqaUBKTNV-1">
          <mxGeometry x="140" y="140" width="60" height="40" as="geometry" />
        </mxCell>
        <mxCell id="3lYdnJpDR3UN_ndo2m7_-60" value="classification" style="text;html=1;strokeColor=none;fillColor=none;align=center;verticalAlign=middle;whiteSpace=wrap;rounded=0;" vertex="1" parent="WIyWlLk6GJQsqaUBKTNV-1">
          <mxGeometry x="430" y="140" width="80" height="20" as="geometry" />
        </mxCell>
        <mxCell id="3lYdnJpDR3UN_ndo2m7_-63" value="data.json @ mongo DB" style="text;html=1;strokeColor=none;fillColor=none;align=center;verticalAlign=middle;whiteSpace=wrap;rounded=0;" vertex="1" parent="WIyWlLk6GJQsqaUBKTNV-1">
          <mxGeometry x="210" y="50" width="140" height="20" as="geometry" />
        </mxCell>
        <mxCell id="3lYdnJpDR3UN_ndo2m7_-65" value="&lt;div&gt;slug&lt;/div&gt;" style="rounded=0;whiteSpace=wrap;html=1;" vertex="1" parent="WIyWlLk6GJQsqaUBKTNV-1">
          <mxGeometry x="640" y="90" width="40" height="20" as="geometry" />
        </mxCell>
        <mxCell id="3lYdnJpDR3UN_ndo2m7_-66" value="&lt;div&gt;slug&lt;/div&gt;" style="rounded=0;whiteSpace=wrap;html=1;" vertex="1" parent="WIyWlLk6GJQsqaUBKTNV-1">
          <mxGeometry x="640" y="90" width="80" height="20" as="geometry" />
        </mxCell>
        <mxCell id="3lYdnJpDR3UN_ndo2m7_-67" value="&lt;div&gt;slug&lt;/div&gt;" style="rounded=0;whiteSpace=wrap;html=1;" vertex="1" parent="WIyWlLk6GJQsqaUBKTNV-1">
          <mxGeometry x="640" y="90" width="80" height="20" as="geometry" />
        </mxCell>
        <mxCell id="3lYdnJpDR3UN_ndo2m7_-68" value="push" style="rounded=0;whiteSpace=wrap;html=1;" vertex="1" parent="WIyWlLk6GJQsqaUBKTNV-1">
          <mxGeometry x="640" y="120" width="80" height="20" as="geometry" />
        </mxCell>
        <mxCell id="3lYdnJpDR3UN_ndo2m7_-69" value="comment (s)" style="rounded=0;whiteSpace=wrap;html=1;" vertex="1" parent="WIyWlLk6GJQsqaUBKTNV-1">
          <mxGeometry x="640" y="150" width="80" height="20" as="geometry" />
        </mxCell>
        <mxCell id="3lYdnJpDR3UN_ndo2m7_-70" value="url" style="rounded=0;whiteSpace=wrap;html=1;" vertex="1" parent="WIyWlLk6GJQsqaUBKTNV-1">
          <mxGeometry x="640" y="240" width="80" height="20" as="geometry" />
        </mxCell>
        <mxCell id="3lYdnJpDR3UN_ndo2m7_-71" value="&lt;div&gt;img_url(s)&lt;/div&gt;" style="rounded=0;whiteSpace=wrap;html=1;" vertex="1" parent="WIyWlLk6GJQsqaUBKTNV-1">
          <mxGeometry x="640" y="270" width="80" height="20" as="geometry" />
        </mxCell>
        <mxCell id="3lYdnJpDR3UN_ndo2m7_-75" value="&lt;div&gt;style&lt;/div&gt;" style="rounded=0;whiteSpace=wrap;html=1;" vertex="1" parent="WIyWlLk6GJQsqaUBKTNV-1">
          <mxGeometry x="740" y="210" width="80" height="20" as="geometry" />
        </mxCell>
        <mxCell id="3lYdnJpDR3UN_ndo2m7_-76" value="data_concat.json @ mongo DB" style="text;html=1;strokeColor=none;fillColor=none;align=center;verticalAlign=middle;whiteSpace=wrap;rounded=0;" vertex="1" parent="WIyWlLk6GJQsqaUBKTNV-1">
          <mxGeometry x="620" y="50" width="220" height="20" as="geometry" />
        </mxCell>
        <mxCell id="3lYdnJpDR3UN_ndo2m7_-79" value="" style="endArrow=none;html=1;exitX=1;exitY=0.5;exitDx=0;exitDy=0;" edge="1" parent="WIyWlLk6GJQsqaUBKTNV-1" source="3lYdnJpDR3UN_ndo2m7_-69">
          <mxGeometry width="50" height="50" relative="1" as="geometry">
            <mxPoint x="690" y="210" as="sourcePoint" />
            <mxPoint x="740" y="160" as="targetPoint" />
          </mxGeometry>
        </mxCell>
        <mxCell id="3lYdnJpDR3UN_ndo2m7_-81" value="vector" style="rounded=0;whiteSpace=wrap;html=1;" vertex="1" parent="WIyWlLk6GJQsqaUBKTNV-1">
          <mxGeometry x="520" y="300" width="80" height="20" as="geometry" />
        </mxCell>
        <mxCell id="3lYdnJpDR3UN_ndo2m7_-83" value="vectorization" style="text;html=1;strokeColor=none;fillColor=none;align=center;verticalAlign=middle;whiteSpace=wrap;rounded=0;" vertex="1" parent="WIyWlLk6GJQsqaUBKTNV-1">
          <mxGeometry x="430" y="290" width="80" height="20" as="geometry" />
        </mxCell>
        <mxCell id="3lYdnJpDR3UN_ndo2m7_-85" value="download" style="text;html=1;strokeColor=none;fillColor=none;align=center;verticalAlign=middle;whiteSpace=wrap;rounded=0;" vertex="1" parent="WIyWlLk6GJQsqaUBKTNV-1">
          <mxGeometry x="280" y="250" width="80" height="20" as="geometry" />
        </mxCell>
        <mxCell id="3lYdnJpDR3UN_ndo2m7_-86" value="image.jpg @ google drive" style="text;html=1;strokeColor=none;fillColor=none;align=center;verticalAlign=middle;whiteSpace=wrap;rounded=0;" vertex="1" parent="WIyWlLk6GJQsqaUBKTNV-1">
          <mxGeometry x="200" y="350" width="160" height="20" as="geometry" />
        </mxCell>
        <mxCell id="3lYdnJpDR3UN_ndo2m7_-87" value="vector(s)" style="rounded=0;whiteSpace=wrap;html=1;" vertex="1" parent="WIyWlLk6GJQsqaUBKTNV-1">
          <mxGeometry x="640" y="300" width="80" height="20" as="geometry" />
        </mxCell>
      </root>
    </mxGraphModel>
  </diagram>
  <diagram id="Nt0J0xKp3pacWhj--r_8" name="Page-2">
    <mxGraphModel dx="1718" dy="936" grid="1" gridSize="10" guides="1" tooltips="1" connect="1" arrows="1" fold="1" page="1" pageScale="1" pageWidth="1169" pageHeight="827" math="0" shadow="0">
      <root>
        <mxCell id="h0hnuQ6VSx8-oMJRBhuu-0" />
        <mxCell id="h0hnuQ6VSx8-oMJRBhuu-1" parent="h0hnuQ6VSx8-oMJRBhuu-0" />
        <mxCell id="D0xRd7xtebiC20sCWtdT-45" value="" style="rounded=0;whiteSpace=wrap;html=1;fillColor=none;gradientColor=none;" vertex="1" parent="h0hnuQ6VSx8-oMJRBhuu-1">
          <mxGeometry x="340" y="40" width="120" height="180" as="geometry" />
        </mxCell>
        <mxCell id="D0xRd7xtebiC20sCWtdT-21" style="edgeStyle=orthogonalEdgeStyle;rounded=0;orthogonalLoop=1;jettySize=auto;html=1;exitX=0.25;exitY=0;exitDx=0;exitDy=0;endArrow=none;endFill=0;" edge="1" parent="h0hnuQ6VSx8-oMJRBhuu-1" source="_npj7aWV0BzCkINokY6t-2">
          <mxGeometry relative="1" as="geometry">
            <mxPoint x="420" y="260" as="targetPoint" />
          </mxGeometry>
        </mxCell>
        <mxCell id="_npj7aWV0BzCkINokY6t-2" value="&lt;div&gt;data_concat.json&lt;br&gt;&lt;/div&gt;&lt;div&gt;&lt;br&gt;&lt;/div&gt;&lt;div&gt;&lt;br&gt;&lt;/div&gt;" style="rounded=0;whiteSpace=wrap;html=1;fillColor=none;gradientColor=none;" vertex="1" parent="h0hnuQ6VSx8-oMJRBhuu-1">
          <mxGeometry x="430" y="280" width="120" height="60" as="geometry" />
        </mxCell>
        <mxCell id="D0xRd7xtebiC20sCWtdT-11" style="edgeStyle=orthogonalEdgeStyle;rounded=0;orthogonalLoop=1;jettySize=auto;html=1;exitX=0.5;exitY=1;exitDx=0;exitDy=0;entryX=0.5;entryY=0;entryDx=0;entryDy=0;endArrow=classic;endFill=1;" edge="1" parent="h0hnuQ6VSx8-oMJRBhuu-1" source="h0hnuQ6VSx8-oMJRBhuu-2" target="u5vzbcWMgcDCL_qY4rwx-0">
          <mxGeometry relative="1" as="geometry" />
        </mxCell>
        <mxCell id="h0hnuQ6VSx8-oMJRBhuu-2" value="image" style="whiteSpace=wrap;html=1;aspect=fixed;fillColor=none;gradientColor=none;" vertex="1" parent="h0hnuQ6VSx8-oMJRBhuu-1">
          <mxGeometry x="220" y="170" width="40" height="40" as="geometry" />
        </mxCell>
        <mxCell id="D0xRd7xtebiC20sCWtdT-4" style="edgeStyle=orthogonalEdgeStyle;rounded=0;orthogonalLoop=1;jettySize=auto;html=1;exitX=1;exitY=0.5;exitDx=0;exitDy=0;entryX=0;entryY=0.5;entryDx=0;entryDy=0;" edge="1" parent="h0hnuQ6VSx8-oMJRBhuu-1" source="u5vzbcWMgcDCL_qY4rwx-0" target="u5vzbcWMgcDCL_qY4rwx-1">
          <mxGeometry relative="1" as="geometry" />
        </mxCell>
        <mxCell id="u5vzbcWMgcDCL_qY4rwx-0" value="&lt;div&gt;face&lt;/div&gt;&lt;div&gt;recognition&lt;br&gt;&lt;/div&gt;" style="rounded=1;whiteSpace=wrap;html=1;fillColor=none;gradientColor=none;" vertex="1" parent="h0hnuQ6VSx8-oMJRBhuu-1">
          <mxGeometry x="200" y="240" width="80" height="40" as="geometry" />
        </mxCell>
        <mxCell id="D0xRd7xtebiC20sCWtdT-14" style="edgeStyle=orthogonalEdgeStyle;rounded=0;orthogonalLoop=1;jettySize=auto;html=1;endArrow=classic;endFill=1;entryX=0.25;entryY=1;entryDx=0;entryDy=0;" edge="1" parent="h0hnuQ6VSx8-oMJRBhuu-1" source="u5vzbcWMgcDCL_qY4rwx-1" target="_npj7aWV0BzCkINokY6t-4">
          <mxGeometry relative="1" as="geometry">
            <mxPoint x="550" y="240" as="targetPoint" />
            <Array as="points">
              <mxPoint x="550" y="260" />
            </Array>
          </mxGeometry>
        </mxCell>
        <mxCell id="u5vzbcWMgcDCL_qY4rwx-1" value="vector" style="rounded=0;whiteSpace=wrap;html=1;fillColor=none;gradientColor=none;" vertex="1" parent="h0hnuQ6VSx8-oMJRBhuu-1">
          <mxGeometry x="320" y="250" width="80" height="20" as="geometry" />
        </mxCell>
        <mxCell id="_npj7aWV0BzCkINokY6t-0" value="vector" style="rounded=0;whiteSpace=wrap;html=1;fillColor=none;gradientColor=none;" vertex="1" parent="h0hnuQ6VSx8-oMJRBhuu-1">
          <mxGeometry x="450" y="310" width="80" height="20" as="geometry" />
        </mxCell>
        <mxCell id="_npj7aWV0BzCkINokY6t-4" value="" style="rounded=0;whiteSpace=wrap;html=1;fillColor=none;gradientColor=none;" vertex="1" parent="h0hnuQ6VSx8-oMJRBhuu-1">
          <mxGeometry x="520" y="40" width="120" height="180" as="geometry" />
        </mxCell>
        <mxCell id="_npj7aWV0BzCkINokY6t-7" value="&lt;div&gt;push&lt;/div&gt;" style="rounded=0;whiteSpace=wrap;html=1;fillColor=none;gradientColor=none;" vertex="1" parent="h0hnuQ6VSx8-oMJRBhuu-1">
          <mxGeometry x="540" y="60" width="80" height="20" as="geometry" />
        </mxCell>
        <mxCell id="_npj7aWV0BzCkINokY6t-8" value="comment" style="rounded=0;whiteSpace=wrap;html=1;fillColor=none;gradientColor=none;" vertex="1" parent="h0hnuQ6VSx8-oMJRBhuu-1">
          <mxGeometry x="540" y="90" width="80" height="20" as="geometry" />
        </mxCell>
        <mxCell id="_npj7aWV0BzCkINokY6t-9" value="url" style="rounded=0;whiteSpace=wrap;html=1;fillColor=none;gradientColor=none;" vertex="1" parent="h0hnuQ6VSx8-oMJRBhuu-1">
          <mxGeometry x="540" y="120" width="80" height="20" as="geometry" />
        </mxCell>
        <mxCell id="_npj7aWV0BzCkINokY6t-10" value="img_url" style="rounded=0;whiteSpace=wrap;html=1;fillColor=none;gradientColor=none;" vertex="1" parent="h0hnuQ6VSx8-oMJRBhuu-1">
          <mxGeometry x="540" y="180" width="80" height="20" as="geometry" />
        </mxCell>
        <mxCell id="_npj7aWV0BzCkINokY6t-11" value="&lt;div&gt;style&lt;/div&gt;" style="rounded=0;whiteSpace=wrap;html=1;fillColor=none;gradientColor=none;" vertex="1" parent="h0hnuQ6VSx8-oMJRBhuu-1">
          <mxGeometry x="540" y="150" width="80" height="20" as="geometry" />
        </mxCell>
        <mxCell id="D0xRd7xtebiC20sCWtdT-0" value="compare" style="text;html=1;strokeColor=none;fillColor=none;align=center;verticalAlign=middle;whiteSpace=wrap;rounded=0;" vertex="1" parent="h0hnuQ6VSx8-oMJRBhuu-1">
          <mxGeometry x="460" y="260" width="60" height="20" as="geometry" />
        </mxCell>
        <mxCell id="D0xRd7xtebiC20sCWtdT-5" value="@Redis" style="text;html=1;strokeColor=none;fillColor=none;align=center;verticalAlign=middle;whiteSpace=wrap;rounded=0;" vertex="1" parent="h0hnuQ6VSx8-oMJRBhuu-1">
          <mxGeometry x="585" y="220" width="60" height="20" as="geometry" />
        </mxCell>
        <mxCell id="D0xRd7xtebiC20sCWtdT-6" value="&lt;div&gt;user upload&lt;br&gt;&lt;/div&gt;" style="text;html=1;strokeColor=none;fillColor=none;align=center;verticalAlign=middle;whiteSpace=wrap;rounded=0;" vertex="1" parent="h0hnuQ6VSx8-oMJRBhuu-1">
          <mxGeometry x="180" y="140" width="60" height="20" as="geometry" />
        </mxCell>
        <mxCell id="D0xRd7xtebiC20sCWtdT-17" style="edgeStyle=orthogonalEdgeStyle;rounded=0;orthogonalLoop=1;jettySize=auto;html=1;entryX=0.5;entryY=0;entryDx=0;entryDy=0;endArrow=classic;endFill=1;" edge="1" parent="h0hnuQ6VSx8-oMJRBhuu-1" source="D0xRd7xtebiC20sCWtdT-16" target="h0hnuQ6VSx8-oMJRBhuu-2">
          <mxGeometry relative="1" as="geometry" />
        </mxCell>
        <mxCell id="D0xRd7xtebiC20sCWtdT-32" style="edgeStyle=none;rounded=0;orthogonalLoop=1;jettySize=auto;html=1;entryX=0;entryY=0.5;entryDx=0;entryDy=0;endArrow=classic;endFill=1;" edge="1" parent="h0hnuQ6VSx8-oMJRBhuu-1" source="D0xRd7xtebiC20sCWtdT-16" target="D0xRd7xtebiC20sCWtdT-26">
          <mxGeometry relative="1" as="geometry" />
        </mxCell>
        <mxCell id="D0xRd7xtebiC20sCWtdT-33" style="edgeStyle=none;rounded=0;orthogonalLoop=1;jettySize=auto;html=1;entryX=0;entryY=0.5;entryDx=0;entryDy=0;endArrow=classic;endFill=1;" edge="1" parent="h0hnuQ6VSx8-oMJRBhuu-1" source="D0xRd7xtebiC20sCWtdT-16" target="D0xRd7xtebiC20sCWtdT-27">
          <mxGeometry relative="1" as="geometry" />
        </mxCell>
        <mxCell id="D0xRd7xtebiC20sCWtdT-34" style="edgeStyle=none;rounded=0;orthogonalLoop=1;jettySize=auto;html=1;entryX=0;entryY=0.5;entryDx=0;entryDy=0;endArrow=classic;endFill=1;" edge="1" parent="h0hnuQ6VSx8-oMJRBhuu-1" source="D0xRd7xtebiC20sCWtdT-16" target="D0xRd7xtebiC20sCWtdT-28">
          <mxGeometry relative="1" as="geometry" />
        </mxCell>
        <mxCell id="D0xRd7xtebiC20sCWtdT-35" style="edgeStyle=none;rounded=0;orthogonalLoop=1;jettySize=auto;html=1;entryX=0;entryY=0.5;entryDx=0;entryDy=0;endArrow=classic;endFill=1;" edge="1" parent="h0hnuQ6VSx8-oMJRBhuu-1" source="D0xRd7xtebiC20sCWtdT-16" target="D0xRd7xtebiC20sCWtdT-24">
          <mxGeometry relative="1" as="geometry" />
        </mxCell>
        <mxCell id="D0xRd7xtebiC20sCWtdT-36" style="edgeStyle=none;rounded=0;orthogonalLoop=1;jettySize=auto;html=1;entryX=0;entryY=0.5;entryDx=0;entryDy=0;endArrow=classic;endFill=1;" edge="1" parent="h0hnuQ6VSx8-oMJRBhuu-1" source="D0xRd7xtebiC20sCWtdT-16" target="D0xRd7xtebiC20sCWtdT-25">
          <mxGeometry relative="1" as="geometry" />
        </mxCell>
        <mxCell id="D0xRd7xtebiC20sCWtdT-16" value="&lt;div&gt;user&lt;/div&gt;@Line" style="ellipse;whiteSpace=wrap;html=1;aspect=fixed;fillColor=none;gradientColor=none;" vertex="1" parent="h0hnuQ6VSx8-oMJRBhuu-1">
          <mxGeometry x="210" y="80" width="60" height="60" as="geometry" />
        </mxCell>
        <mxCell id="D0xRd7xtebiC20sCWtdT-22" value="top 5 closest article" style="text;html=1;strokeColor=none;fillColor=none;align=center;verticalAlign=middle;whiteSpace=wrap;rounded=0;" vertex="1" parent="h0hnuQ6VSx8-oMJRBhuu-1">
          <mxGeometry x="430" y="240" width="120" height="20" as="geometry" />
        </mxCell>
        <mxCell id="D0xRd7xtebiC20sCWtdT-37" style="edgeStyle=none;rounded=0;orthogonalLoop=1;jettySize=auto;html=1;entryX=0;entryY=0.5;entryDx=0;entryDy=0;endArrow=classic;endFill=1;" edge="1" parent="h0hnuQ6VSx8-oMJRBhuu-1" source="D0xRd7xtebiC20sCWtdT-24" target="_npj7aWV0BzCkINokY6t-7">
          <mxGeometry relative="1" as="geometry" />
        </mxCell>
        <mxCell id="D0xRd7xtebiC20sCWtdT-24" value="&lt;div&gt;預估推數&lt;/div&gt;" style="rounded=0;whiteSpace=wrap;html=1;fillColor=#ffe6cc;strokeColor=#d79b00;" vertex="1" parent="h0hnuQ6VSx8-oMJRBhuu-1">
          <mxGeometry x="360" y="60" width="80" height="20" as="geometry" />
        </mxCell>
        <mxCell id="D0xRd7xtebiC20sCWtdT-38" style="edgeStyle=none;rounded=0;orthogonalLoop=1;jettySize=auto;html=1;entryX=0;entryY=0.5;entryDx=0;entryDy=0;endArrow=classic;endFill=1;" edge="1" parent="h0hnuQ6VSx8-oMJRBhuu-1" source="D0xRd7xtebiC20sCWtdT-25" target="_npj7aWV0BzCkINokY6t-8">
          <mxGeometry relative="1" as="geometry" />
        </mxCell>
        <mxCell id="D0xRd7xtebiC20sCWtdT-25" value="推文預測" style="rounded=0;whiteSpace=wrap;html=1;fillColor=#ffe6cc;strokeColor=#d79b00;" vertex="1" parent="h0hnuQ6VSx8-oMJRBhuu-1">
          <mxGeometry x="360" y="90" width="80" height="20" as="geometry" />
        </mxCell>
        <mxCell id="D0xRd7xtebiC20sCWtdT-39" style="edgeStyle=none;rounded=0;orthogonalLoop=1;jettySize=auto;html=1;entryX=0;entryY=0.5;entryDx=0;entryDy=0;endArrow=classic;endFill=1;" edge="1" parent="h0hnuQ6VSx8-oMJRBhuu-1" source="D0xRd7xtebiC20sCWtdT-26" target="_npj7aWV0BzCkINokY6t-9">
          <mxGeometry relative="1" as="geometry" />
        </mxCell>
        <mxCell id="D0xRd7xtebiC20sCWtdT-26" value="相似文章" style="rounded=0;whiteSpace=wrap;html=1;fillColor=#ffe6cc;strokeColor=#d79b00;" vertex="1" parent="h0hnuQ6VSx8-oMJRBhuu-1">
          <mxGeometry x="360" y="120" width="80" height="20" as="geometry" />
        </mxCell>
        <mxCell id="D0xRd7xtebiC20sCWtdT-40" style="edgeStyle=none;rounded=0;orthogonalLoop=1;jettySize=auto;html=1;endArrow=classic;endFill=1;" edge="1" parent="h0hnuQ6VSx8-oMJRBhuu-1" source="D0xRd7xtebiC20sCWtdT-27" target="_npj7aWV0BzCkINokY6t-11">
          <mxGeometry relative="1" as="geometry" />
        </mxCell>
        <mxCell id="D0xRd7xtebiC20sCWtdT-27" value="風格辨識" style="rounded=0;whiteSpace=wrap;html=1;fillColor=#ffe6cc;strokeColor=#d79b00;" vertex="1" parent="h0hnuQ6VSx8-oMJRBhuu-1">
          <mxGeometry x="360" y="150" width="80" height="20" as="geometry" />
        </mxCell>
        <mxCell id="D0xRd7xtebiC20sCWtdT-41" style="edgeStyle=none;rounded=0;orthogonalLoop=1;jettySize=auto;html=1;entryX=0;entryY=0.5;entryDx=0;entryDy=0;endArrow=classic;endFill=1;" edge="1" parent="h0hnuQ6VSx8-oMJRBhuu-1" source="D0xRd7xtebiC20sCWtdT-28" target="_npj7aWV0BzCkINokY6t-10">
          <mxGeometry relative="1" as="geometry" />
        </mxCell>
        <mxCell id="D0xRd7xtebiC20sCWtdT-28" value="相似照片" style="rounded=0;whiteSpace=wrap;html=1;fillColor=#ffe6cc;strokeColor=#d79b00;" vertex="1" parent="h0hnuQ6VSx8-oMJRBhuu-1">
          <mxGeometry x="360" y="180" width="80" height="20" as="geometry" />
        </mxCell>
        <mxCell id="D0xRd7xtebiC20sCWtdT-46" value="chat bot buttoms" style="text;html=1;strokeColor=none;fillColor=none;align=center;verticalAlign=middle;whiteSpace=wrap;rounded=0;" vertex="1" parent="h0hnuQ6VSx8-oMJRBhuu-1">
          <mxGeometry x="340" y="20" width="120" height="20" as="geometry" />
        </mxCell>
      </root>
    </mxGraphModel>
  </diagram>
</mxfile>
